# xmcd CD database file
#
# Track frame offsets:
#	150
#	23773
#	47888
#	70756
#	90940
#	120376
#	148194
#	171943
#	190128
#	215528
#	238036
#	258499
#	283303
#	293933
#
# Disc length: 4207 seconds
#
# Revision: 0
# Processed by: cddbd v1.5.1PL2 Copyright (c) Steve Scherf et al.
# Submitted via: CDex 1.51
#
DISCID=d4106d0e
DTITLE=Musa Dieng Kala - Musa Dieng Kala
DYEAR=2000
DGENRE=world music
TTITLE0=Allahouma Salli
TTITLE1=Ngeum
TTITLE2=Badr
TTITLE3=Anta Leuzi
TTITLE4=Salimto
TTITLE5=Ya Donu Nabi
TTITLE6=Rabi
TTITLE7=Bimayachrahou  (a cappella)
TTITLE8=Ndimbeule
TTITLE9=Akhbadtou
TTITLE10=Ndiggeul
TTITLE11=Réane
TTITLE12=Amdi Wachoukri ( A cappella)
TTITLE13=Deugou
EXTD=YEAR: 2000
EXTT0=
EXTT1=
EXTT2=
EXTT3=
EXTT4=
EXTT5=
EXTT6=
EXTT7=
EXTT8=
EXTT9=
EXTT10=
EXTT11=
EXTT12=
EXTT13=
PLAYORDER=
